<?xml version="1.0" encoding="utf-8"?>
<!-- Generator: Adobe Illustrator 17.0.0, SVG Export Plug-In . SVG Version: 6.00 Build 0)  -->
<!DOCTYPE svg PUBLIC "-//W3C//DTD SVG 1.1//EN" "http://www.w3.org/Graphics/SVG/1.1/DTD/svg11.dtd">
<svg version="1.1" id="Layer_1" xmlns="http://www.w3.org/2000/svg" xmlns:xlink="http://www.w3.org/1999/xlink" x="0px" y="0px"
	 width="526px" height="468px" viewBox="0 0 526 468" enable-background="new 0 0 526 468" xml:space="preserve">
<g>
	<g id="XMLID_1_">
		<g>
			<path fill="#f7c3c3" d="M520.34,4.26c4.3,1.05,5.07,5.11,1.43,8.87c-7.98,8.26-16.16,16.34-24.28,24.48
				c-7.88,7.9-15.87,15.7-23.63,23.71c-3,3.09-6.27,4.41-10.6,4.4c-37.32-0.12-74.64-0.07-111.97-0.07c-7.85,0-8.78,0.63-10.8,8.03
				C327.31,121.78,314.16,169.89,301,218c-1.09,4.01-2.27,8.01-3.17,12.06c-1.7,7.66-6.34,13.45-11.69,18.81
				c-24.83,24.87-49.67,49.73-74.52,74.59c-0.7,0.7-1.34,1.64-2.2,1.99c-1.69,0.7-4.37,2.01-5.11,1.35c-1.46-1.3-2.81-3.9-2.55-5.73
				c0.66-4.57,2.22-9.01,3.44-13.5c17.15-62.87,34.29-125.75,51.45-188.61c9.41-34.47,18.86-68.92,28.3-103.38
				c0.35-1.28,0.8-2.53,1.2-3.8c2.2-6.83,3.48-7.78,10.77-7.78c21.33,0.01,42.66,0.03,63.99,0.04c15.16,0.01,30.32,0,45.49,0
				c0-0.01,0-0.02,0-0.03c36.32,0,72.64,0,108.97,0.01C517.03,4.02,518.75,3.88,520.34,4.26z"/>
			<path fill="#f7c3c3" d="M236.64,4c8.74-0.01,9.56,0.91,7.29,9.21c-11.72,42.81-23.53,85.6-35.24,128.42
				C194.36,194.08,180.17,246.57,165.8,299c-7.82,28.55-15.89,57.03-23.86,85.54c-2.37,8.48-7.81,14.94-13.9,20.98
				c-17.5,17.36-34.96,34.75-52.48,52.08c-3.73,3.69-7.71,7.13-13.59,5.34c-5.69-1.72-7.98-6.83-6.1-13.77
				c5.52-20.39,11.1-40.77,16.68-61.14c15.8-57.74,31.61-115.48,47.41-173.22c12.6-46.03,25.17-92.08,37.78-138.1
				c3.37-12.3,2.87-11.09-8.49-11.09c-45.82,0.01-91.65-0.02-137.48,0.05C8.35,65.68,4.8,65.4,4.2,61.73
				c-0.36-2.21,1.1-5.41,2.79-7.13C21.56,39.73,36.4,25.13,51.08,10.37c4.35-4.38,9.27-6.46,15.58-6.42
				c28.33,0.2,56.66,0.09,84.99,0.09c0-0.01,0-0.03,0-0.04C179.98,4,208.31,4.01,236.64,4z"/>
		</g>
	</g>
</g>
</svg>
